<?xml version="1.0" encoding="utf-8"?>
<svg xmlns="http://www.w3.org/2000/svg" viewBox="0 0 310 44" preserveAspectRatio="xMinYMid meet">
<style type="text/css">
.box{fill:#107BB6}
.letter{fill:#FFFFFF}
.txt{fill:#FFFFFF;font-family:'Segoe UI',system-ui,-apple-system,'Helvetica Neue',Arial,sans-serif;font-weight:700}
</style>
<g>
<rect class="box" width="92" height="44"/>
<g>
<path class="letter" d="M14.7,26.2c-0.1-0.7-0.1-1.7-0.1-2.2l1-12h3.8l-1.1,12.1c-0.2,2.6,0.8,4.5,3.3,4.5c2.6,0,4-1.9,4.2-4.2L27.1,12H31l-1.1,12.2c-0.4,4.7-3.5,8.2-8.4,8.2C17.7,32.5,15.2,29.9,14.7,26.2"/>
<path class="letter" d="M31.9,22.2c0.5-5.8,4.3-10.5,10.9-10.5c1.7,0,3.4,0.4,5.1,1.5l-0.4,4.8c-1.5-2-3.3-2.4-5-2.4c-4.1,0-6.3,2.9-6.7,6.6c-0.3,3.6,1.5,6.5,5.5,6.5c1.7,0,3.6-0.5,5.5-2.5L46.3,31c-1.9,1-3.6,1.5-5.4,1.5C34.4,32.5,31.4,27.6,31.9,22.2"/>
<path class="letter" d="M50.9,12h3.8l-1.4,16.3h5.5c0.4,0,1.7,0,2,0c0,0.2-0.3,3.8-0.3,3.8H49.2L50.9,12z"/>
<path class="letter" d="M70.9,19.5c0.1-0.3,0.2-0.6,0.3-0.8h0.1c0,0.2,0.1,0.5,0.2,0.9c0.2,0.9,1.7,6,1.7,6h-4.8C68.3,25.5,70.9,19.6,70.9,19.5 M71.9,11.1h-0.3L61.1,32h4.1l1.5-3.2h7.4L75,32h4.1L71.9,11.1z"/>
</g>
</g>
<text class="txt" x="102" y="19" font-size="13">Laurence &amp; Lori</text>
<text class="txt" x="102" y="37" font-size="16">Fink Center for Finance</text>
</svg>
